<?xml version="1.0" encoding="utf-8"?>
<!-- Generator: Adobe Illustrator 21.0.0, SVG Export Plug-In . SVG Version: 6.00 Build 0)  -->
<svg version="1.1" id="Layer_1" xmlns="http://www.w3.org/2000/svg" xmlns:xlink="http://www.w3.org/1999/xlink" x="0px" y="0px"
	 viewBox="0 0 2048 2048" style="enable-background:new 0 0 2048 2048;" xml:space="preserve">
<style type="text/css">
	.st0{fill:#512C62;}
	.st1{fill:#C70D3A;}
</style>
<g>
	<g>
		<path class="st1" d="M748.6,1533.5c-130.8,0-237.3-106.4-237.3-237.3V746.4c0-130.8,106.4-237.3,237.3-237.3
			s237.3,106.4,237.3,237.3v549.8C985.9,1427.1,879.4,1533.5,748.6,1533.5z M748.6,537.2c-115.4,0-209.3,93.9-209.3,209.3v549.8
			c0,115.4,93.9,209.3,209.3,209.3s209.3-93.9,209.3-209.3V746.4C957.9,631.1,864,537.2,748.6,537.2z"/>
	</g>
	<g>
		<path class="st1" d="M643.8,1401.1c-34.6-25.2-55.2-65.7-55.2-108.4v-185.9h28v185.9c0,33.8,16.3,65.8,43.7,85.7L643.8,1401.1z"/>
	</g>
	<g>
		<rect x="527.6" y="1002.9" class="st1" width="444.3" height="28"/>
	</g>
	<g>
		<path class="st0" d="M1286.2,1538.8c-138.1,0-250.5-112.4-250.5-250.5c0-138.1,112.4-250.5,250.5-250.5
			c138.1,0,250.5,112.4,250.5,250.5C1536.7,1426.5,1424.3,1538.8,1286.2,1538.8z M1286.2,1065.9c-122.7,0-222.5,99.8-222.5,222.5
			c0,122.7,99.8,222.5,222.5,222.5s222.5-99.8,222.5-222.5C1508.7,1165.7,1408.9,1065.9,1286.2,1065.9z"/>
	</g>
	<g>
		<rect x="1056.2" y="1274.4" class="st0" width="460" height="28"/>
	</g>
</g>
</svg>
